<svg width="200" height="200" viewBox="0 0 200 200" fill="none" xmlns="http://www.w3.org/2000/svg">
<g clip-path="url(#clip0_212_7)">
<rect width="200" height="200" rx="20" fill="black"/>
<path d="M57.8673 66.199V48.247H142.952V66.199H118.268C124.128 75.0503 127.431 84.0263 128.179 93.127C129.052 102.103 126.933 110.456 121.821 118.185C116.835 125.914 109.105 131.711 98.6333 135.576C107.734 148.791 120.637 159.512 137.342 167.74L132.106 174.472C126.372 171.231 121.385 168.239 117.146 165.496C113.032 162.878 108.046 159.387 102.186 155.024C96.327 150.661 91.278 146.422 87.0393 142.308C82.9253 138.069 78.8736 133.083 74.8843 127.348C70.895 121.613 67.8406 115.754 65.7213 109.77C68.464 101.916 71.3313 96.2437 74.3233 92.753C75.4453 91.3817 77.5023 91.444 80.4943 92.94C83.4863 94.436 86.1666 96.306 88.5353 98.55C89.408 99.4227 90.156 101.667 90.7793 105.282C91.5273 108.773 92.2753 111.391 93.0233 113.136C98.01 111.515 101.875 108.96 104.617 105.469C107.36 101.854 108.981 97.802 109.479 93.314C109.978 88.826 109.853 84.338 109.105 79.85C108.482 75.362 107.298 70.8117 105.552 66.199H57.8673Z" fill="white"/>
</g>
<defs>
<clipPath id="clip0_212_7">
<rect width="200" height="200" rx="20" fill="white"/>
</clipPath>
</defs>
</svg>
